# xmcd CD database file
#
# Track frame offsets:
#	150
#	39675
#	60960
#	85826
#	114661
#	135413
#	164952
#	190802
#	223618
#	246458
#	291234
#	316427
#
# Disc length: 4431 seconds
#
# Revision: 0
# Processed by: cddbd v1.5.2PL0 Copyright (c) Steve Scherf et al.
# Submitted via: CDex 1.99.1
#
DISCID=b6114d0c
DTITLE=Oliver Nelson - The Complete Prestige Collection 3/4
DYEAR=2017
DGENRE=Jazz
TTITLE0=Stolen Moments
TTITLE1=Hoe-Down
TTITLE2=Cascades
TTITLE3=Yearnin'
TTITLE4=Butch and Butch
TTITLE5=Teenie's Blues
TTITLE6=Images
TTITLE7=Six and Four
TTITLE8=Mama Lou
TTITLE9=Ralph's New Blues
TTITLE10=Straight Ahead
TTITLE11=111-44
EXTD=YEAR: 2017
EXTT0=
EXTT1=
EXTT2=
EXTT3=
EXTT4=
EXTT5=
EXTT6=
EXTT7=
EXTT8=
EXTT9=
EXTT10=
EXTT11=
PLAYORDER=
